<?xml version="1.0" encoding="UTF-8"?>
<svg id="Capa_1" data-name="Capa 1" xmlns="http://www.w3.org/2000/svg" viewBox="0 0 752.5 802.38">
  <defs>
    <style>
      .cls-1 {
        fill: #fff;
      }
    </style>
  </defs>
  <path class="cls-1" d="M55.07,509.81c-3.28.63-6.56,1.16-8.93,2.83-1.68,11.59-.03,22.79,1.75,34.36-3.73.13-9.87,1.44-9.93,5.52-.12,7.87,1.45,15.41,2.71,23.18,7.91,48.62,11.16,103.62,9.45,152.98-.52,15.11-2.48,29.53-4.54,44.45,2.36,1.88,8.87,1.7,10.1-.85,4.29-12.31,5.18-24.51,5.26-37.53.01-2.02.58-4.6,1.11-6.9,4.15-.14,8.14.02,11.97.79l3.33,45.75,2.61,28,13.44-.12c-2.84-18.68-4.65-34.03-4.87-51.62,10.47-2.13,19.2-3.79,28.38-8.52,3.04-1.57,6.01-6.24,8.34-8.77l48.16-3.56,123.37-10.2,51.93-4.29,95.08-7.91,46.49-4.26,47.99-3.79,98.97-8.01c22.35-1.81,14.12-3.62,35.94,2.15l-6.8,25.2c10.65,5.17,11.23-17.45,15.36-23.63l36.6,2.49c1.38.09,3.39,3.06,3.57,4.4,3.1,22.3,6.59,31.67,11.22,52.21-1.5,1.57-3.49,3.74-3.1,5.05,2.71,8.94,27.68,2.71,21.51-1.14l-2.21-1.38c-1.88-1.18-4.17-2.97-4.9-5.46-11.06-37.8-16.59-76.11-15.6-115.65.23-9.03-1.71-18.99,2.4-27.03,3.15-6.15,6.11-11.25,6.71-18.7,1.52-18.74-.96-49.99-14.79-64.58,4.34-2.91,6.9-6.21,8.05-10.74,5.06-19.81,4.63-46.18.2-66.15-.87-3.9-3.75-7.49-4.9-11.09l-8.61-26.96c-2.54-7.95-6.66-13.7-13.77-17.87-13.49-7.91-27.36-13.72-41.72-20.13-12.95-5.78-26.18-10.44-40.79-7.67-3.82.73-7.55,3.34-11.62,5.24l4.53-7.58c9.16-15.32,17.65-30.28,23.98-46.99,13.84-36.51,14.11-56.34,12.23-95.47-1.2-25.01-24.72-43.1-49.66-38.79-2.39.41-5.26.4-7.17-.62,3.34-30.9-6.93-99.81-23.82-123.41l-7.54-10.54c-12.11-16.92-27.3-53.48-64.91-45.3-13.24,2.88-22.76,11.74-30.02,22.6-1.61,2.41-3.96,6.52-1.65,8.82,18.04,17.96,31.34,34.94,39.28,59.33,4.73,14.53,8.3,28.48,9.63,44,2.55,29.64-2.96,59.42-18.88,84.62-8.57,13.57-17.63,25.77-25.19,39.69-16.29,29.98-.45,40.03-10.01,47.72l-52.08,41.88c-6.89,5.54-15.24,7.63-23.66,8.95-7.06,1.11-12.51-1.86-18.27-4.76-9.36-4.71-14.89-11.68-15.43-22.63-.77-15.46,11.06-30.73,27.17-29.97,10.88.51,19.94,11.3,15.87,21.15-1.9,4.61-8.77,2.68-11.44.15-2.52-2.39-5.37-3.93-8.48-2.61,2.75,5.21,7.39,8.91,13.25,9.8,3.1.47,8.89-3.26,10.51-6.18,2.1-3.78,1.94-9.11.56-12.6-7.04-17.75-28.06-18.63-38.62-11.51-9.68,6.54-14.23,16.04-16.59,28.13l-8.47-15.5c-1.45-2.66-6.6-4.71-9.44-6.45-11.01-6.73-25.03-5.24-33.77,4.42-5.68,6.28-7.24,15.98-2.98,23.31,2.47,4.26,7.61,5.11,12.27,4.71,3.06-.27,7.74-3.85,9.22-6.81.42-.84-1.13-3.51-1.8-2.97l-2.67,2.15c-2,1.6-4.71,6-7.77,5.01-7.9-2.55-9.2-12.9-5.07-19.04,5.86-8.71,16.3-10.44,25.52-6.98,10.11,3.79,16.52,11.18,17.91,21.9,1.28,9.83-1.17,18.69-8.05,25.81-5.99,6.2-14.7,8.42-24.14,8.34-5.15-.05-10.16.08-14.94-2.5l-42.47-22.94c-6.26-3.38-12.61-4.97-18.86-8.64l-14.72-8.65c-.38-1.25-.71-4.35-.48-5.7,1.88-10.63.35-21.66-5.49-30.99-7.65-12.22-15.87-23.59-25.03-34.67-16.7-20.2-32.11-48.83-35.25-75.3-4.78-40.33.94-80.46,26.34-113.03l13.41-17.19c1.24-1.59,1-4.36-.09-6.52-11.95-23.62-42.15-32.9-65.17-19.37-14.24,8.37-22.68,21.71-29.58,36.3-13.73,29.02-25.17,63.32-26.31,95.67-.66,18.7-.4,36.65,1.98,55.28-24.27-3.22-43.81,5.25-53.36,27.98-10.65,25.34-1.74,57.74,8.58,82.31,11.32,26.94,24.41,52.3,42.47,75.17l6.7,8.49c-9.87-1.57-18.49-3.68-27.77-1.04-24.67,7-34.56,39.25-23.08,59.68,17.74,31.56,39.08,30.55,33.85,49.81ZM2.4,280.61l5.48-50.54c.97-9,3.36-17.24,3.01-26.5l-6.91,29.27C-.82,253.15-.12,273.81.3,294.05l2.1-13.44ZM4.58,632.53l-.71-24.38c-.07-2.46-.9-5.81-1.58-8.22l.39,39.93c2.99-1.7,1.98-4.39,1.9-7.33Z"/>
  <path d="M55.07,509.81c5.23-19.27-16.11-18.25-33.85-49.81-11.49-20.44-1.59-52.68,23.08-59.68,9.28-2.63,17.91-.53,27.77,1.04l-6.7-8.49c-18.06-22.88-31.15-48.23-42.47-75.17-10.32-24.57-19.23-56.97-8.58-82.31,9.55-22.73,29.1-31.2,53.36-27.98-2.38-18.63-2.64-36.58-1.98-55.28,1.14-32.36,12.57-66.65,26.31-95.67,6.9-14.59,15.35-27.93,29.58-36.3,23.02-13.53,53.22-4.25,65.17,19.37,1.09,2.16,1.33,4.93.09,6.52l-13.41,17.19c-25.4,32.57-31.12,72.7-26.34,113.03,3.14,26.46,18.56,55.09,35.25,75.3,9.16,11.08,17.37,22.46,25.03,34.67,5.84,9.32,7.37,20.36,5.49,30.99-.24,1.35.1,4.45.48,5.7l14.72,8.65c6.25,3.67,12.6,5.26,18.86,8.64l42.47,22.94c4.78,2.58,9.79,2.46,14.94,2.5,9.44.09,18.14-2.14,24.14-8.34,6.88-7.12,9.33-15.97,8.05-25.81-1.39-10.72-7.8-18.1-17.91-21.9-9.22-3.46-19.66-1.73-25.52,6.98-4.12,6.13-2.83,16.49,5.07,19.04,3.06.99,5.78-3.41,7.77-5.01l2.67-2.15c.67-.54,2.21,2.14,1.8,2.97-1.48,2.96-6.16,6.54-9.22,6.81-4.67.41-9.8-.45-12.27-4.71-4.26-7.33-2.7-17.04,2.98-23.31,8.74-9.65,22.76-11.14,33.77-4.42,2.85,1.74,7.99,3.8,9.44,6.45l8.47,15.5c2.36-12.09,6.91-21.59,16.59-28.13,10.56-7.13,31.58-6.24,38.62,11.51,1.38,3.49,1.54,8.82-.56,12.6-1.62,2.92-7.41,6.65-10.51,6.18-5.86-.89-10.5-4.59-13.25-9.8,3.1-1.33,5.96.22,8.48,2.61,2.67,2.54,9.54,4.47,11.44-.15,4.07-9.85-4.99-20.64-15.87-21.15-16.11-.76-27.94,14.51-27.17,29.97.55,10.95,6.07,17.92,15.43,22.63,5.75,2.9,11.21,5.87,18.27,4.76,8.42-1.33,16.77-3.41,23.66-8.95l52.08-41.88c9.56-7.69-6.27-17.73,10.01-47.72,7.56-13.92,16.62-26.13,25.19-39.69,15.92-25.2,21.43-54.97,18.88-84.62-1.33-15.52-4.9-29.47-9.63-44-7.94-24.39-21.24-41.37-39.28-59.33-2.31-2.3.04-6.41,1.65-8.82,7.25-10.86,16.78-19.72,30.02-22.6,37.61-8.18,52.8,28.37,64.91,45.3l7.54,10.54c16.89,23.61,27.16,92.51,23.82,123.41,1.91,1.02,4.78,1.03,7.17.62,24.95-4.31,48.46,13.78,49.66,38.79,1.88,39.14,1.61,58.96-12.23,95.47-6.33,16.71-14.83,31.67-23.98,46.99l-4.53,7.58c4.07-1.9,7.79-4.51,11.62-5.24,14.61-2.77,27.84,1.88,40.79,7.67,14.36,6.41,28.23,12.22,41.72,20.13,7.11,4.17,11.24,9.92,13.77,17.87l8.61,26.96c1.15,3.6,4.03,7.19,4.9,11.09,4.43,19.97,4.86,46.33-.2,66.15-1.16,4.53-3.71,7.83-8.05,10.74,13.82,14.59,16.3,45.84,14.79,64.58-.6,7.44-3.56,12.54-6.71,18.7-4.12,8.04-2.18,18.01-2.4,27.03-.99,39.54,4.54,77.85,15.6,115.65.73,2.49,3.01,4.28,4.9,5.46l2.21,1.38c6.16,3.86-18.8,10.08-21.51,1.14-.4-1.31,1.6-3.47,3.1-5.05-4.63-20.54-8.12-29.91-11.22-52.21-.19-1.34-2.19-4.31-3.57-4.4l-36.6-2.49c-4.13,6.18-4.7,28.8-15.36,23.63l6.8-25.2c-21.82-5.77-13.59-3.96-35.94-2.15l-98.97,8.01-47.99,3.79-46.49,4.26-95.08,7.91-51.93,4.29-123.37,10.2-48.16,3.56c-2.33,2.53-5.3,7.21-8.34,8.77-9.18,4.73-17.91,6.39-28.38,8.52.21,17.59,2.03,32.94,4.87,51.62l-13.44.12-2.61-28-3.33-45.75c-3.83-.77-7.82-.93-11.97-.79-.53,2.3-1.09,4.88-1.11,6.9-.09,13.02-.97,25.22-5.26,37.53-1.23,2.55-7.74,2.73-10.1.85,2.06-14.92,4.02-29.33,4.54-44.45,1.7-49.36-1.54-104.36-9.45-152.98-1.27-7.77-2.83-15.32-2.71-23.18.06-4.08,6.2-5.39,9.93-5.52-1.79-11.57-3.43-22.78-1.75-34.36,2.38-1.67,5.65-2.2,8.93-2.83ZM512.1,298.16c-5.16,2.19-13.59-8.23-13.21-13.72.2-2.89,2.68-5.98,5.66-8.07,7.44-5.22,19.05-3.32,24.35,4.24,6.6,9.4,5.35,19.87,4.76,31.63,13.72-18.05,22.71-37.09,31.68-56.61,14.65-31.86,20.71-72.81,17.72-107.61-1.48-17.17-3.17-33.69-8.15-50.2l-5.42-17.96c-2.13-7.05-5.33-13.9-8.5-20.61-7.2-15.25-15.52-29.37-27.43-41.51-4.29-4.37-11.49-8.35-17.45-9.54-15.78-3.13-35.72,6.9-42.03,22.44,27.64,25.09,42.49,64.2,47.57,100.42,4.68,33.37-.86,66.6-18.83,95.28l-26.45,42.2c-5.34,8.52-8.8,18.75-5.02,28.32,3.62,9.18,9.02,17.6,17.17,23.25,3.2,2.22,9.07,2.91,12.97,3.46,11.02,1.56,20.45-4.27,24.83-14.05,3-6.71,3.86-14.15-.08-21.06-2.79-4.88-7.52-10.4-14.65-11.32-3.45-.45-7.59,2.02-8.53,4.43-3.41,8.78,7.4,10.11,9.08,16.56ZM168.51,318.2c1.5-5.27,5.27-8.49,5.69-13.11.44-4.89-5.6-8.36-10.11-8-9.18.74-14.76,9.39-14.27,18.2.32,5.59,1.79,10.23,4.79,14.69,9.4,14,28.26,17.24,41.16,5.58,12.71-11.48,15.16-30.81,5.73-45.65-6.89-10.84-15.03-20.22-22.91-30.58-10.42-13.69-20.82-26.58-29.59-41.4-11.98-20.25-14.22-46.47-14.19-69.91.06-38.53,13.91-74.68,39.82-103.04,1.89-2.07,2.18-5.69.16-7.96-11.2-12.59-29.92-18.79-45.78-11.13-9.26,4.48-15.42,13.73-20.03,22.38-4.23,7.95-8.63,14.94-12.12,23.17-9.6,22.65-17.68,45.78-19.5,70.38-2.76,37.1-.85,68.75,9.57,103.98,4.1,13.85,11.48,25.6,18.26,38.02,8.77,16.08,20.09,29.49,33.4,41.8,2.24,2.08,3.35,4.75,7.08,5.97-3.59-10.69-3.65-21.6,3.14-30.67,6.01-8.02,17.7-10.35,25.13-3.72,7.66,6.83.15,16.19-5.44,21ZM541.34,397.17c-5.98-1.82-10.02-6.8-11.83-12.24-1.96-5.89,2.15-10.16,7.15-12.33,7.52-3.27,15.92-2.3,20.69,4.19,8.35,11.35,8.69,24.32,1.24,37.75,3.42-.76,5.04-4.03,7.54-6.41,47.25-45.15,88.84-122.93,75.96-189.92-.64-3.32-2.53-7.25-3.91-10.48-7.23-16.89-28.86-21.83-44.59-15.46-1.61,9.76-3.78,19.31-6.73,28.65l-6.41,20.31c-9.42,29.85-25.21,56.6-43.08,82.25l-25.83,37.09c-9.61,13.81-15.11,35.81-1.05,47.93,12.75,10.99,20.24,11.63,35.78,8.14,8.84-5.41,13.53-16.52,11.11-26.61-1.76-7.34-8.13-13.53-15.06-14.99-4.61-.97-7.98.94-9.22,4.86-2.6,8.24,12.06,10.52,8.25,17.27ZM153.54,421.01l4.03-14.48c1.68-6.02-8.19-9.42-13.64-6.82-9.86,4.7-13.13,16.44-10.77,26.9,1.77,7.85,8.31,11.99,15.3,14.86,15.23,6.25,31.66.44,38.9-14.82,7.05-14.85,3.85-32.82-7.71-44.64l-26.08-26.69-21.07-22.56c-12.79-13.69-23.42-28.6-33.45-44.5-12.88-20.41-22.21-41.74-28.21-65.11-2.9-11.3-25.67-7.75-34.98-.68-13.88,10.53-18,33.35-14.4,50.25,2.17,10.19,3.28,20.93,6.84,30.68,4.81,13.18,11.06,25.04,17.1,37.68,11.38,23.85,25.91,44.9,44.93,63.22,4.21,4.06,8.08,8.16,12.38,11.95l17.24,15.21c4.31,3.8,8.27,8.72,15.04,9.2-8.69-11.69-10.15-25.77-1.79-36.72,5.3-6.94,14-10.45,22.13-6.53,7.89,3.81,3.64,17.35-1.8,23.61ZM356.11,403.27c-.89,18.64,16.56,32.45,34.29,32.89,6.8.17,15.2-1.71,21.69-4.91,28.33-13.98,55.13-29.16,82.46-45.19,1.08-13.67,5.36-25,12.67-35.92l17.15-25.62c-16.29,10.91-35.42,9.94-48.79-3.56l-6.83-6.91-33,27.46-16.44,13.04c-7.53,5.97-16.13,9.6-25.92,13.42,11.57,5.7,18.03,15.84,13.15,27.81-1.42,3.5-6.8,8.36-10.63,8.85-6.04.77-12-2.5-15.62-7.42,4.78-4.55,12.81,7.45,20.1,1.77,2.51-1.96,3.75-6.13,3.13-9.66-1.34-7.62-7.26-12.2-13.17-14.24-14.53-5.01-33.37,10.31-34.23,28.2ZM297.4,389.71c-4.51,5.12-3.53,13.81.49,18.88l.32-2.3c.04-.25.38-.1.59.05l1.44,1.07c1.06.78,3.73,2,5.03,1.93,4.16-.23,5.74-7.54,9.37-10.04.53,4.47.39,8.39-1.83,11.27s-5.87,4.06-9.78,4.27c-5.62.31-10-2.5-12.05-7.81-4.67-12.09,1.76-24.12,13.72-30.69-12.73-1.93-22.76-4.69-32.84-10.59l-49.26-28.77-9.23-5.42c-1.28-.75-4.71.53-5.55,1.8-9.03,13.5-25.13,20.07-40.69,15.32-3.76-1.15-6.86-1.99-11.23-2.73,18.2,22.91,37.97,30.17,42.88,62.5,13.87,3.03,34.51,8.6,46.84,14.85,9.66,4.9,20.52,6.58,30.75,9.87l19.83,6.38c9.81,3.15,21.08,3.19,29.68-1.75,13.87-7.96,19.82-23.4,14.11-37.58-3.83-9.49-10.16-15.57-20.01-18.04-8.53-2.14-15.93,0-22.57,7.52ZM326.94,378.6c10.76,2.1,18.61,9.89,22.43,21.23,3.13-14.44,10.21-25.41,24.68-33.11-13.47-5.26-22.06-13.29-27.9-25.69-1.54,8.62-4.45,14.34-9.14,20.61-5.98,5.08-12.14,8.91-19.58,12.96l9.52,4.01ZM569.57,503.15c9.06-1.51,15.79-9.39,18.43-16.79,3.65-10.23-.69-21.13-10.09-25.35-3.66-1.64-7.91-1.12-9.87,2.16-4.58,7.65,6.06,11.57,3.41,19.24-4.62-3.61-9.21-9.66-8.36-15.83,1.13-8.2,11.45-11.96,18.88-8.45,6.2,2.94,12.23,9.52,13.44,16.61,1.25,7.3-1.87,14.02-2.89,21.69,25.69-20.14,47.36-46.99,64.43-73.38,10-15.47,6.69-35.76-7.21-46.69-12.89-10.13-28.84-7.93-39.26,4.59-7.77,9.33-1.31,27.66,5.81,31.14,4.11,2,9.81,2.94,12.97-.44,5.05-5.4-6.17-14.76-1.84-16.77,7.08,1.65,10.62,12.95,5.57,18.33-8.2,8.75-21.47,5.16-27.57-4.32-5-7.77-4.83-16.19-3.82-25.97-11.29,13.78-22.62,25.23-34.22,37.67l-19.59,21.03c-4.22,4.53-8.39,9.82-10.4,15.95-4.76,14.54-.65,31.63,11.7,41.22,4.92,3.82,14.08,5.43,20.47,4.37ZM711.29,441.65c1.78,2.73,7.91,18.71,8.77,15.18,2.13-8.75-5-30.57-8.51-40.27-3.23-8.93-8.43-14.75-16.84-18.9l-31.14-15.35c2.7,8.09,5.03,14.12,4.73,21.45l-.6,14.83,16.42,9.03c7.76,4.27,12.96,10.14,13.29,19.49.52.01,2.55-1.46,2.75-2.2,1.01-3.81,7.98-8.09,11.13-3.26ZM368.26,496.69c9.06,12.12,18.14,14.77,31.91,16.4,7.2.85,12.12-1.47,18.28-4.53,7.38-3.66,15.75-6.8,23.76-9.17,8.25-2.44,15.08-5.39,22.77-9.01,15.2-7.17,30.36-13.73,46.09-19.69l14.91-5.64c1.93-11.49,7.3-20.87,14.34-30.01l8.15-10.58c-22.51,9.53-43.43-2.82-50.92-24.09-.55-1.57-3.07-2.64-4.66-1.77l-70.64,38.76-20.57,8.47c4.57,4.88,9.28,8.57,12.86,13.32,5.92,7.84,1.61,18.59-5.39,23.89-3.6,2.73-6.59,3.94-10.69,1.09-4.35-3.02-8.4-8.15-9.48-13.95,7.76-5.59,10.37,11.43,18.16,8.93,6.63-2.13,6.23-10.38,2.97-15.68-4.15-6.76-12.08-10.91-19.49-10.91-7.69,0-15.46,2.51-20.22,9.1-2.99,4.15-4.24,9.95-5.94,14.5-2.97,7.91-1.23,13.87,3.79,20.58ZM72.16,432.53l4.62,13.25c11.6-9.01,4.55-25.49-5.78-33.41-7.79-5.97-17.41-7.66-26.63-3.02,1.49,2.34,2.84,3.31,5.1,4.61,6.24,3.59,13.22,9.89,17.48,14.03,1.2,1.16,4.69,3.05,5.2,4.53ZM353.34,473.69c1.15-.87,3.83-3.07,4.37-4.69,3.83-11.47,12.9-20.1,25.93-24.28-16.77-5.56-28.05-16.03-33.6-32.82-2.09,6.35-2.45,11.91-4.66,16.93-4.59,10.46-13.91,15.32-23.89,20.98l8.25,1.97c11.32,2.71,18.73,12.06,23.61,21.91ZM66.61,458.96c-.27-2.41-3.06-4.89-5.02-5.58-4.54-1.62-6.33-6.77-3.73-10.16l5.53,5.34c3.73-12.56-20.19-27.45-28.92-32.68-6.27,5.46-8.99,12.14-8.79,20.04.71,27.92,8.4,15.05,31.75,39.79,3.07,3.26,6.57,5.83,11.43,3.3l-2.25-20.05ZM136.13,510.52c-1.5-4.55,5.14-14.2-.38-18.35-1.16-.87-4.23-1.5-5.7-1.5-7.55-.01-10.8,4.49-13.36,10.19s-3.4,11.86.98,17.05c4.84,5.73,10.23,11.47,17.36,13.88,8.09,2.75,15.38,1.58,21.89-2.79,8.66-5.82,14.34-13.31,15.35-24.39,1.3-14.26-5.87-27.48-17.47-36.02l-39.16-28.81-28.51-22.74c5.47,12.74,3.05,25.13-6.96,33.17-1.29,1.03-1.5,5.11-1.36,6.91l4.05,49.7c.77,9.47,6.76,4.27,18.53,13.14,5.03,3.79,9.45,7.25,15.42,10.49-4.57-8.96-8.61-15.26-6.91-24.49,1.34-7.29,5.25-15.37,13.13-19.01,5.05-2.34,12.8-2.92,16.15,2.19,4.04,6.17,3.08,15.79-3.07,21.36ZM332.86,513.7c12.22-8.29,17.63-21.87,13.54-36.08-4.17-14.46-18.21-22.93-33.38-19.28-8.12,1.95-15.01,9.72-15.68,18.03-.32,3.96.9,7.82,3.26,10.15,1.83,1.79,6.4,4.47,9.13,2.72,3.8-2.44,5.83-7.27,8.21-10.87,1.8,6.15-2.88,12.09-7.69,13.85-5.51,2.02-11.23-.94-14.29-5.96-7.91-12.98,1.17-25.24,11.72-34.53-7.83-.85-14.88-2.05-22.02-4.45l-28.12-9.46-54.42-19.55c-6.52-2.34-1.93,6.73-12.89,19.41-9.57,11.07-24.38,17.3-38.79,12.77-2.32-.73-3.99-1.08-6.32.22l19.91,15.81c12.74,10.11,8.35,10.5,16.88,22.62,14.4,4.52,28.22,6.63,42.8,10.02l48.33,11.24c11.01,2.56,21.74,4.86,32.39,8.26,9.83,3.14,18.76.95,27.43-4.94ZM676.96,510.47l11.1,2.66c-2.05-7.1-4.01-12.4-4.57-19.37-.1-1.3-2.01-27.85,2.11-24.61l2.12,1.67c1.94,1.53,4.39,3.05,7.28,1.85-.23-33.42-3.83-31.3-30.41-44.95-19.73,32.46-43.75,59.58-73.81,84.03,4.96,1.46,10.18.6,13.99-1.15,3.17-1.46,5.06-1.43,8.61-1.08,11.32,1.1,22.65-.19,34.1-.62,15.34-.58,10.7-9.46,22.55.41,2.33.37,4.64.63,6.93,1.18ZM712.16,464.6c.19-3.49-.64-7.97-3-10.94-.93,4.24-1.34,8.15-1.47,12.26.77.56,4.41-.03,4.48-1.33ZM504.12,517.98c1.86-2.24,3.8-3.93,6.59-3.84,16.04.51,31.34.67,47.68-1.54-22.26-10.37-25.01-12.84-32.6-35.97l-54.42,22.48-52.67,21.43c5.98,1.94,12.19.09,17.88.83,5.14.67,8.86.8,13.89-.65,6.01-1.74,13.57-2.66,19.78-1.84,12.62,1.65,21.71.49,33.87-.88ZM398.78,523.12c-37.35-4.67-38.98-29.26-43.58-34.27-1.66-1.81-.49,9.83-3.96,16.53-5.76,11.14-15.11,17.18-27.21,22.66,8.18.45,17.22.88,24.98-.79,20.52-4.39,30.58-.49,49.76-4.13ZM723.26,488.34l-15.87,1.43c-.7,4.07,4.37,31.07,10.35,26.29,4.41-3.52,6.45-21.93,5.52-27.72ZM692.12,508.27c1.91-3.6,2.33-6.25,1.87-9.1-1.89.46-4.1,1.82-4.2,3.2-.14,1.81.81,4.78,2.33,5.9ZM302.9,528.94c-23.9-5.07-45.51-11.24-68.33-16.27l-16.86-3.72-35.74-8.52c-.43,17.75-9.26,30.99-25.59,39,14.01-.51,26.63-1.2,39.36-3.13,5.68-.86,11.03-1.08,17.08-1.23,12.11-.3,24.12-1.19,35.96-2.67,18.7-2.34,35.42.58,54.11-3.46ZM115.65,542.92l-17.51-11.55-15.17-10.39c-1.39,5.9-.33,10.94.44,16.67l.94,7.01c15.93-3.94,17.37-.19,31.3-1.74ZM638.29,522.32c-12.68-1.11-23.98.81-36.66,1.73-1.6,4.24,34.69.41,36.66-1.73ZM696.28,528.25c-6.1-5.72-15.16-5.15-21.19-3.49-.4.87-.43,3.58.27,4.05s2.82,1.5,3.8,1.39l17.12-1.94ZM584.46,528.69c.67-.05,2.22-1.51,1.73-1.57-.32-.04-2.06-1.32-2.54-1.28l-31.86,2.78c.21.84,3.16,2.43,4.5,2.32l28.16-2.25ZM626.23,535.12l31.81-3.51c-4.61-4.48-9.56-4.37-14.79-4.03-8.97.59-16.93,1.12-26.2,2.92l9.19,4.63ZM470.08,528.76c-6.78-1.13-12.08-1.02-17.52,1.47,6.35.73,12.16.24,17.52-1.47ZM507.16,535.36l28.67-2.58c-1.64-2.42-3.95-2.65-6.84-2.45l-31.25,2.16c2.29,2.19,5.69,3.2,9.42,2.87ZM418.43,532.66c-6.86-.59-12.22-.67-17.86-.53l-14.7,2.55c11.14,1.02,21.89-.03,32.55-2.02ZM606.7,536.88c-2.79-1.92-6.62-4.63-8.78-4.7-8.67-.3-24.06,1.55-33.78,3.27l10.4,4.13,32.16-2.7ZM482.03,536.92c.62-.05,1.4-1.3,1-1.52-.27-.14-2.08-1.5-2.39-1.48l-22.45,1.78-12.19.95c1.83,1.51,4.55,2.67,6.89,2.49l29.14-2.23ZM352.92,538.09l11.09-1.44c-1.34-1.2-3.74-1.58-6.02-1.29l-18.64,2.41c4.63.41,8.9.46,13.57.32ZM554.35,541.38l-8.31-5.47-34.24,3.67c2.83,1.5,7.51,4.62,10.88,4.35l31.68-2.55ZM431.38,540.75c-.82-1.8-3.31-2.96-5.63-2.78l-32.64,2.51c1.85,1.21,3.92,2.41,5.03,2.75l33.25-2.48ZM717.93,629.12l1.49-19.55c-11.8-6.9-16.16-27.94-16.23-39.81-.03-5.47,3.57-7.37,8.01-8.32,4.67-1,8.25-1.74,12.77.67-.78-8.81-2.63-16.62-6.51-23.75l-22.35,2.55-15.97,1.82c4.98,22.8,7.98,44.32,8.84,67.41.35,9.36.85,18.25.46,27.51-.64,15.14-1.21,29.57-4.01,44.66,10.97,2.29,22.34,3.09,34.28,2.61-.95-19-2.21-37.11-.78-55.8ZM314.05,539.73c-5.75-.69-10.16-1.09-14.93.61,5.56,1.72,10.14-.02,14.93-.61ZM350.05,546.49l29.02-2.23c-.61-.72-3.16-2.68-4.38-2.6l-34.22,2.19c2.19,2.62,5.88,2.92,9.59,2.64ZM500.95,545.91l-6.74-4.98-17.97,1.06c-5.31.31-10.31.88-15.66,1.86,4.23,5.04,9.46,4.5,14.62,4.1l25.76-2.02ZM256.48,543.79c-2.36-.37-4.43-.36-6.24.03,2.36.37,4.43.36,6.24-.03ZM127.36,721.79l46.38-3.74,77.05-6.24,181.76-15.22,33.75-2.78,27.16-2.22,55.18-4.63,33.03-2.76,67.12-5.8c1.84-4.35,4.79-7.63,9.15-8.94l18.63-5.63c2.11-40.97.18-80.32-9.06-120.26l-46.32,4.37-79.26,6.87c-79.4,6.88-158.15,11.59-237.82,17.03l-171.1,11.7-32.59,2.06-17.11,1.19,4.25,32.04c1.19,8.98.73,18.45.95,27.84.1,4.29-1.27,8.67-1.7,12.77-1.13,10.6-1.23,21.19-.96,31.89l.63,24.85c8.69,1.35,17.27,1.51,25,4.42,5.64,2.13,9.54,1.71,15.88,1.2ZM448.15,549.98l-7.75-5.38-34.3,2.75c10,8.81,27.33,2.97,42.04,2.63ZM325.22,547.88c-1.46-1.93-2.85-2.9-3.79-2.82l-34.06,2.72c2.6,2.73,5.54,2.25,8.58,2.05l29.27-1.94ZM205.82,547.84c-2.36-.37-4.43-.36-6.24.03,2.36.37,4.43.36,6.24-.03ZM237.44,553.76l34.11-2.28c-.97-2.35-2.73-2.89-4.85-2.75l-33.93,2.3c.69,1.53,2.91,2.85,4.67,2.73ZM395.44,553.69l-7.65-5.53-35.56,2.87c3.46,2.49,6.17,3.66,9.51,4.98l33.7-2.33ZM181.17,557.61l35.26-2.48c.56-.89-1.51-2.96-2.5-2.87l-35.43,3.2c-.11.26,1.7,2.22,2.67,2.15ZM339.91,557.15c-3.25-5.62-7.75-5.06-12.64-4.74l-29.69,1.9c5.38,5.29,11.77,4.99,18.54,4.51l23.79-1.67ZM255.84,562.76l29.18-2.35c-1.63-3.24-4.9-4.97-8.3-4.72l-33.67,2.53c3.05,4.32,7.68,4.95,12.79,4.54ZM162.08,557.66c-13.9-1.04-26.13.82-39.22,1.8-7.43,3.79,43.58.54,39.22-1.8ZM229.61,564.33c-1.88-2.79-3.38-3.97-5.49-5.17l-36.8,2.89c3.6,4.17,8.91,5.06,14.29,4.61l28-2.33ZM103.9,563.12l1.61-1.93c.27-.32-1.87-1-2.35-.97l-19.7,1.11c-.51.03-1.98.59-2.36.7s1.01,1.92,1.48,1.91l21.32-.82ZM174.17,568.27c-1.27-1.66-4.3-4.78-5.97-4.89l-35.6,2.64c1.18,2.49,4.51,4.68,7.3,4.5l34.27-2.25ZM80.5,574.37l36.94-2.58c-1.46-1.92-3.35-3.82-4.9-4.83l-32.61,1.96c-1.46.09-3.18,1.83-2.87,3,.24.91,2.25,2.53,3.45,2.45ZM73.97,715.62l-1.8-56.47c-.05-1.52-9.82-35.36-6.45-46.04.55-1.74,4.7-3.04,6.6-4-1.09-9.36-1.42-19.68-5.35-28.21-3.44-4.6-9.24-7.87-14.28-11.38-.16,8.23,1.26,15.18,2.63,22.89,1.15,6.49,1.81,13.11,2.34,19.79l2.9,36.47,1.16,17.2c.49,7.31.54,14.43.46,21.55l-.31,27.94c4.47.5,6.92.58,12.11.27ZM723.56,594.8c1.44-5.15,1.76-8.3,2.05-14.29l-6.37,2.1c1.17,4.84,2.08,8.09,4.32,12.19ZM675.25,680.87c-.42-2.89-.77-5.03-1.4-4.88-1.69.43-5.48,1.77-7.42,2.66,3.65,1.54,5.54,1.84,8.83,2.22ZM104.92,733.72c.53-.14,1.7-1.93,1.21-2.05-.33-.08-1.96-1.07-2.39-1.12l-16.31-1.86c-.23,3.75-.16,5.93.44,9.54l17.04-4.51Z"/>
  <path class="cls-1" d="M127.36,721.79c-6.34.51-10.24.93-15.88-1.2-7.73-2.91-16.31-3.07-25-4.42l-.63-24.85c-.27-10.71-.17-21.29.96-31.89.44-4.1,1.8-8.48,1.7-12.77-.22-9.39.24-18.86-.95-27.84l-4.25-32.04,17.11-1.19,32.59-2.06,171.1-11.7c79.67-5.45,158.42-10.15,237.82-17.03l79.26-6.87,46.32-4.37c9.24,39.95,11.17,79.29,9.06,120.26l-18.63,5.63c-4.35,1.32-7.31,4.6-9.15,8.94l-67.12,5.8-33.03,2.76-55.18,4.63-27.16,2.22-33.75,2.78-181.76,15.22-77.05,6.24-46.38,3.74Z"/>
  <path class="cls-1" d="M168.51,318.2c5.59-4.81,13.1-14.17,5.44-21-7.44-6.62-19.13-4.3-25.13,3.72-6.79,9.06-6.73,19.98-3.14,30.67-3.72-1.21-4.83-3.89-7.08-5.97-13.31-12.31-24.63-25.72-33.4-41.8-6.78-12.42-14.16-24.16-18.26-38.02-10.42-35.22-12.33-66.88-9.57-103.98,1.83-24.6,9.9-47.73,19.5-70.38,3.49-8.23,7.88-15.22,12.12-23.17,4.61-8.65,10.77-17.9,20.03-22.38,15.86-7.67,34.58-1.46,45.78,11.13,2.02,2.27,1.73,5.89-.16,7.96-25.92,28.36-39.77,64.51-39.82,103.04-.03,23.43,2.21,49.66,14.19,69.91,8.77,14.82,19.17,27.72,29.59,41.4,7.88,10.35,16.02,19.73,22.91,30.58,9.43,14.84,6.98,34.16-5.73,45.65-12.9,11.66-31.76,8.41-41.16-5.58-3-4.47-4.47-9.1-4.79-14.69-.5-8.81,5.09-17.46,14.27-18.2,4.51-.36,10.55,3.11,10.11,8-.42,4.62-4.19,7.84-5.69,13.11Z"/>
  <path class="cls-1" d="M512.1,298.16c-1.67-6.45-12.49-7.78-9.08-16.56.94-2.42,5.08-4.88,8.53-4.43,7.13.92,11.87,6.44,14.65,11.32,3.94,6.9,3.09,14.34.08,21.06-4.37,9.78-13.81,15.61-24.83,14.05-3.9-.55-9.77-1.24-12.97-3.46-8.14-5.65-13.54-14.07-17.17-23.25-3.78-9.58-.32-19.81,5.02-28.32l26.45-42.2c17.97-28.68,23.51-61.91,18.83-95.28-5.08-36.22-19.92-75.33-47.57-100.42,6.32-15.54,26.26-25.57,42.03-22.44,5.96,1.18,13.17,5.17,17.45,9.54,11.91,12.14,20.23,26.25,27.43,41.51,3.17,6.71,6.38,13.57,8.5,20.61l5.42,17.96c4.99,16.52,6.68,33.03,8.15,50.2,2.99,34.8-3.07,75.75-17.72,107.61-8.98,19.52-17.96,38.56-31.68,56.61.6-11.77,1.84-22.24-4.76-31.63-5.31-7.56-16.91-9.46-24.35-4.24-2.98,2.09-5.46,5.18-5.66,8.07-.38,5.49,8.05,15.91,13.21,13.72Z"/>
  <path class="cls-1" d="M153.54,421.01c5.44-6.26,9.7-19.8,1.8-23.61-8.13-3.92-16.83-.41-22.13,6.53-8.36,10.95-6.9,25.03,1.79,36.72-6.77-.47-10.73-5.39-15.04-9.2l-17.24-15.21c-4.3-3.79-8.17-7.89-12.38-11.95-19.02-18.32-33.55-39.37-44.93-63.22-6.03-12.64-12.28-24.5-17.1-37.68-3.56-9.76-4.67-20.49-6.84-30.68-3.6-16.9.53-39.72,14.4-50.25,9.31-7.06,32.07-10.62,34.98.68,6,23.37,15.33,44.7,28.21,65.11,10.03,15.9,20.66,30.81,33.45,44.5l21.07,22.56,26.08,26.69c11.55,11.82,14.76,29.79,7.71,44.64-7.25,15.26-23.67,21.07-38.9,14.82-6.99-2.87-13.53-7.01-15.3-14.86-2.35-10.46.91-22.2,10.77-26.9,5.45-2.6,15.31.8,13.64,6.82l-4.03,14.48Z"/>
  <path class="cls-1" d="M541.34,397.17c3.82-6.76-10.85-9.03-8.25-17.27,1.24-3.92,4.6-5.83,9.22-4.86,6.93,1.46,13.3,7.65,15.06,14.99,2.42,10.09-2.27,21.19-11.11,26.61-15.53,3.5-23.03,2.85-35.78-8.14-14.06-12.12-8.56-34.12,1.05-47.93l25.83-37.09c17.86-25.65,33.65-52.4,43.08-82.25l6.41-20.31c2.95-9.34,5.12-18.88,6.73-28.65,15.73-6.38,37.36-1.43,44.59,15.46,1.38,3.23,3.28,7.16,3.91,10.48,12.89,66.99-28.71,144.77-75.96,189.92-2.49,2.38-4.12,5.65-7.54,6.41,7.45-13.43,7.11-26.4-1.24-37.75-4.78-6.49-13.17-7.46-20.69-4.19-5,2.18-9.12,6.44-7.15,12.33,1.81,5.44,5.85,10.43,11.83,12.24Z"/>
  <path class="cls-1" d="M332.86,513.7c-8.67,5.89-17.6,8.08-27.43,4.94-10.65-3.41-21.37-5.7-32.39-8.26l-48.33-11.24c-14.58-3.39-28.4-5.5-42.8-10.02-8.53-12.13-4.15-12.51-16.88-22.62l-19.91-15.81c2.33-1.3,4-.94,6.32-.22,14.42,4.52,29.22-1.7,38.79-12.77,10.96-12.68,6.37-21.75,12.89-19.41l54.42,19.55,28.12,9.46c7.14,2.4,14.2,3.61,22.02,4.45-10.55,9.29-19.63,21.55-11.72,34.53,3.06,5.02,8.77,7.98,14.29,5.96,4.81-1.76,9.49-7.7,7.69-13.85-2.39,3.6-4.42,8.43-8.21,10.87-2.73,1.75-7.31-.93-9.13-2.72-2.37-2.32-3.58-6.19-3.26-10.15.67-8.31,7.56-16.08,15.68-18.03,15.17-3.64,29.21,4.83,33.38,19.28,4.09,14.21-1.32,27.78-13.54,36.08Z"/>
  <path class="cls-1" d="M368.26,496.69c-5.02-6.71-6.75-12.67-3.79-20.58,1.71-4.55,2.95-10.35,5.94-14.5,4.76-6.6,12.53-9.1,20.22-9.1,7.4,0,15.33,4.15,19.49,10.91,3.26,5.31,3.66,13.55-2.97,15.68-7.8,2.5-10.4-14.52-18.16-8.93,1.08,5.8,5.13,10.94,9.48,13.95,4.1,2.85,7.09,1.63,10.69-1.09,6.99-5.3,11.3-16.05,5.39-23.89-3.58-4.74-8.29-8.44-12.86-13.32l20.57-8.47,70.64-38.76c1.59-.87,4.11.2,4.66,1.77,7.5,21.27,28.41,33.62,50.92,24.09l-8.15,10.58c-7.04,9.13-12.41,18.51-14.34,30.01l-14.91,5.64c-15.72,5.95-30.89,12.52-46.09,19.69-7.69,3.63-14.51,6.57-22.77,9.01-8.01,2.37-16.38,5.51-23.76,9.17-6.16,3.06-11.08,5.38-18.28,4.53-13.77-1.63-22.85-4.29-31.91-16.4Z"/>
  <path class="cls-1" d="M297.4,389.71c6.64-7.52,14.03-9.66,22.57-7.52,9.85,2.47,16.18,8.55,20.01,18.04,5.72,14.17-.24,29.61-14.11,37.58-8.6,4.94-19.88,4.9-29.68,1.75l-19.83-6.38c-10.23-3.29-21.09-4.98-30.75-9.87-12.33-6.25-32.97-11.82-46.84-14.85-4.91-32.32-24.68-39.59-42.88-62.5,4.38.74,7.48,1.58,11.23,2.73,15.56,4.75,31.66-1.82,40.69-15.32.85-1.26,4.27-2.55,5.55-1.8l9.23,5.42,49.26,28.77c10.09,5.89,20.12,8.65,32.84,10.59-11.96,6.57-18.4,18.6-13.72,30.69,2.05,5.31,6.44,8.11,12.05,7.81,3.91-.21,7.64-1.5,9.78-4.27s2.36-6.8,1.83-11.27c-3.63,2.5-5.21,9.81-9.37,10.04-1.3.07-3.97-1.15-5.03-1.93l-1.44-1.07c-.21-.15-.55-.31-.59-.05l-.32,2.3c-4.01-5.07-5-13.76-.49-18.88Z"/>
  <path class="cls-1" d="M356.11,403.27c.86-17.89,19.7-33.21,34.23-28.2,5.91,2.04,11.83,6.62,13.17,14.24.62,3.53-.61,7.7-3.13,9.66-7.29,5.68-15.31-6.32-20.1-1.77,3.63,4.91,9.59,8.19,15.62,7.42,3.83-.49,9.2-5.35,10.63-8.85,4.87-11.96-1.58-22.11-13.15-27.81,9.79-3.82,18.4-7.45,25.92-13.42l16.44-13.04,33-27.46,6.83,6.91c13.36,13.51,32.5,14.47,48.79,3.56l-17.15,25.62c-7.31,10.92-11.59,22.25-12.67,35.92-27.33,16.03-54.14,31.2-82.46,45.19-6.49,3.2-14.89,5.08-21.69,4.91-17.73-.44-35.18-14.25-34.29-32.89Z"/>
  <path class="cls-1" d="M569.57,503.15c-6.39,1.06-15.55-.55-20.47-4.37-12.36-9.59-16.47-26.68-11.7-41.22,2.01-6.13,6.18-11.42,10.4-15.95l19.59-21.03c11.59-12.44,22.93-23.89,34.22-37.67-1.01,9.78-1.18,18.2,3.82,25.97,6.1,9.48,19.37,13.07,27.57,4.32,5.04-5.38,1.5-16.69-5.57-18.33-4.33,2.01,6.89,11.37,1.84,16.77-3.17,3.38-8.86,2.45-12.97.44-7.13-3.48-13.58-21.8-5.81-31.14,10.42-12.52,26.38-14.71,39.26-4.59,13.9,10.92,17.21,31.22,7.21,46.69-17.06,26.39-38.73,53.24-64.43,73.38,1.02-7.67,4.14-14.39,2.89-21.69-1.21-7.08-7.24-13.67-13.44-16.61-7.43-3.52-17.75.25-18.88,8.45-.85,6.17,3.74,12.22,8.36,15.83,2.65-7.67-7.99-11.59-3.41-19.24,1.96-3.28,6.21-3.8,9.87-2.16,9.4,4.22,13.74,15.12,10.09,25.35-2.64,7.4-9.37,15.29-18.43,16.79Z"/>
  <path class="cls-1" d="M136.13,510.52c6.15-5.57,7.11-15.19,3.07-21.36-3.35-5.12-11.1-4.53-16.15-2.19-7.88,3.64-11.79,11.73-13.13,19.01-1.7,9.23,2.34,15.53,6.91,24.49-5.97-3.24-10.39-6.7-15.42-10.49-11.78-8.87-17.76-3.67-18.53-13.14l-4.05-49.7c-.15-1.8.07-5.88,1.36-6.91,10.01-8.04,12.43-20.43,6.96-33.17l28.51,22.74,39.16,28.81c11.6,8.53,18.77,21.75,17.47,36.02-1.01,11.09-6.69,18.57-15.35,24.39-6.51,4.38-13.8,5.54-21.89,2.79-7.12-2.42-12.52-8.16-17.36-13.88-4.38-5.19-3.62-11.16-.98-17.05s5.81-10.21,13.36-10.19c1.47,0,4.54.63,5.7,1.5,5.52,4.16-1.13,13.81.38,18.35Z"/>
  <path class="cls-1" d="M676.96,510.47c-2.3-.55-4.61-.81-6.93-1.18-11.85-9.87-7.21-.99-22.55-.41-11.44.43-22.78,1.72-34.1.62-3.55-.35-5.44-.37-8.61,1.08-3.81,1.75-9.03,2.62-13.99,1.15,30.06-24.44,54.08-51.56,73.81-84.03,26.58,13.65,30.18,11.53,30.41,44.95-2.89,1.2-5.34-.32-7.28-1.85l-2.12-1.67c-4.12-3.25-2.21,23.31-2.11,24.61.56,6.97,2.51,12.27,4.57,19.37l-11.1-2.66Z"/>
  <path class="cls-1" d="M717.93,629.12c-1.43,18.7-.16,36.8.78,55.8-11.94.48-23.31-.32-34.28-2.61,2.8-15.09,3.37-29.52,4.01-44.66.39-9.25-.11-18.15-.46-27.51-.86-23.09-3.86-44.61-8.84-67.41l15.97-1.82,22.35-2.55c3.87,7.13,5.73,14.94,6.51,23.75-4.52-2.42-8.1-1.68-12.77-.67-4.44.95-8.04,2.85-8.01,8.32.06,11.87,4.43,32.92,16.23,39.81l-1.49,19.55Z"/>
  <path class="cls-1" d="M504.12,517.98c-12.16,1.37-21.26,2.53-33.87.88-6.21-.81-13.77.1-19.78,1.84-5.03,1.46-8.75,1.33-13.89.65-5.69-.74-11.9,1.11-17.88-.83l52.67-21.43,54.42-22.48c7.59,23.13,10.33,25.6,32.6,35.97-16.34,2.21-31.64,2.05-47.68,1.54-2.79-.09-4.73,1.6-6.59,3.84Z"/>
  <path class="cls-1" d="M302.9,528.94c-18.68,4.04-35.4,1.12-54.11,3.46-11.84,1.48-23.85,2.37-35.96,2.67-6.06.15-11.4.36-17.08,1.23-12.73,1.93-25.36,2.62-39.36,3.13,16.33-8.01,25.15-21.24,25.59-39l35.74,8.52,16.86,3.72c22.82,5.03,44.43,11.2,68.33,16.27Z"/>
  <path class="cls-1" d="M711.29,441.65c-3.15-4.83-10.12-.55-11.13,3.26-.2.74-2.23,2.21-2.75,2.2-.33-9.34-5.52-15.22-13.29-19.49l-16.42-9.03.6-14.83c.29-7.33-2.04-13.36-4.73-21.45l31.14,15.35c8.41,4.15,13.61,9.97,16.84,18.9,3.51,9.7,10.64,31.52,8.51,40.27-.86,3.53-6.99-12.45-8.77-15.18Z"/>
  <path class="cls-1" d="M73.97,715.62c-5.19.3-7.65.23-12.11-.27l.31-27.94c.08-7.12.03-14.24-.46-21.55l-1.16-17.2-2.9-36.47c-.53-6.69-1.18-13.3-2.34-19.79-1.37-7.71-2.79-14.66-2.63-22.89,5.04,3.51,10.84,6.79,14.28,11.38,3.93,8.53,4.26,18.86,5.35,28.21-1.9.96-6.05,2.26-6.6,4-3.36,10.69,6.4,44.52,6.45,46.04l1.8,56.47Z"/>
  <path class="cls-1" d="M66.61,458.96l2.25,20.05c-4.86,2.53-8.35-.04-11.43-3.3-23.34-24.74-31.03-11.88-31.75-39.79-.2-7.9,2.52-14.57,8.79-20.04,8.73,5.23,32.65,20.12,28.92,32.68l-5.53-5.34c-2.6,3.4-.81,8.55,3.73,10.16,1.96.7,4.75,3.17,5.02,5.58Z"/>
  <path class="cls-1" d="M353.34,473.69c-4.88-9.85-12.28-19.2-23.61-21.91l-8.25-1.97c9.99-5.66,19.3-10.52,23.89-20.98,2.2-5.02,2.56-10.58,4.66-16.93,5.55,16.78,16.83,27.25,33.6,32.82-13.03,4.18-22.1,12.81-25.93,24.28-.54,1.63-3.22,3.83-4.37,4.69Z"/>
  <path class="cls-1" d="M326.94,378.6l-9.52-4.01c7.44-4.05,13.61-7.88,19.58-12.96,4.68-6.27,7.6-11.99,9.14-20.61,5.84,12.4,14.44,20.44,27.9,25.69-14.46,7.71-21.55,18.67-24.68,33.11-3.82-11.33-11.67-19.13-22.43-21.23Z"/>
  <path class="cls-1" d="M398.78,523.12c-19.18,3.64-29.24-.26-49.76,4.13-7.77,1.66-16.8,1.24-24.98.79,12.1-5.48,21.44-11.52,27.21-22.66,3.47-6.7,2.3-18.34,3.96-16.53,4.6,5.02,6.22,29.61,43.58,34.27Z"/>
  <path class="cls-1" d="M72.16,432.53c-.52-1.48-4.01-3.37-5.2-4.53-4.27-4.15-11.24-10.45-17.48-14.03-2.26-1.3-3.6-2.27-5.1-4.61,9.22-4.64,18.84-2.95,26.63,3.02,10.33,7.92,17.38,24.4,5.78,33.41l-4.62-13.25Z"/>
  <path class="cls-1" d="M115.65,542.92c-13.93,1.55-15.36-2.2-31.3,1.74l-.94-7.01c-.77-5.73-1.83-10.77-.44-16.67l15.17,10.39,17.51,11.55Z"/>
  <path class="cls-1" d="M723.26,488.34c.93,5.79-1.11,24.2-5.52,27.72-5.98,4.77-11.05-22.22-10.35-26.29l15.87-1.43Z"/>
  <path class="cls-1" d="M229.61,564.33l-28,2.33c-5.38.45-10.69-.44-14.29-4.61l36.8-2.89c2.11,1.2,3.61,2.38,5.49,5.17Z"/>
  <path class="cls-1" d="M395.44,553.69l-33.7,2.33c-3.34-1.32-6.05-2.49-9.51-4.98l35.56-2.87,7.65,5.53Z"/>
  <path class="cls-1" d="M80.5,574.37c-1.2.08-3.21-1.54-3.45-2.45-.31-1.17,1.42-2.92,2.87-3l32.61-1.96c1.55,1,3.44,2.9,4.9,4.83l-36.94,2.58Z"/>
  <path class="cls-1" d="M448.15,549.98c-14.71.34-32.04,6.18-42.04-2.63l34.3-2.75,7.75,5.38Z"/>
  <path class="cls-1" d="M255.84,562.76c-5.11.41-9.74-.22-12.79-4.54l33.67-2.53c3.39-.25,6.67,1.48,8.3,4.72l-29.18,2.35Z"/>
  <path class="cls-1" d="M339.91,557.15l-23.79,1.67c-6.76.47-13.15.77-18.54-4.51l29.69-1.9c4.89-.31,9.38-.87,12.64,4.74Z"/>
  <path class="cls-1" d="M554.35,541.38l-31.68,2.55c-3.37.27-8.05-2.84-10.88-4.35l34.24-3.67,8.31,5.47Z"/>
  <path class="cls-1" d="M500.95,545.91l-25.76,2.02c-5.17.41-10.39.95-14.62-4.1,5.35-.97,10.35-1.54,15.66-1.86l17.97-1.06,6.74,4.98Z"/>
  <path class="cls-1" d="M626.23,535.12l-9.19-4.63c9.27-1.8,17.23-2.33,26.2-2.92,5.23-.34,10.19-.46,14.79,4.03l-31.81,3.51Z"/>
  <path class="cls-1" d="M606.7,536.88l-32.16,2.7-10.4-4.13c9.72-1.72,25.11-3.57,33.78-3.27,2.16.07,5.99,2.78,8.78,4.7Z"/>
  <path class="cls-1" d="M174.17,568.27l-34.27,2.25c-2.79.18-6.12-2.01-7.3-4.5l35.6-2.64c1.67.12,4.7,3.23,5.97,4.89Z"/>
  <path class="cls-1" d="M237.44,553.76c-1.76.12-3.98-1.2-4.67-2.73l33.93-2.3c2.12-.14,3.88.4,4.85,2.75l-34.11,2.28Z"/>
  <path class="cls-1" d="M104.92,733.72l-17.04,4.51c-.6-3.61-.67-5.79-.44-9.54l16.31,1.86c.43.05,2.06,1.04,2.39,1.12.48.12-.69,1.91-1.21,2.05Z"/>
  <path class="cls-1" d="M507.16,535.36c-3.73.34-7.13-.67-9.42-2.87l31.25-2.16c2.89-.2,5.2.03,6.84,2.45l-28.67,2.58Z"/>
  <path class="cls-1" d="M350.05,546.49c-3.71.28-7.4-.02-9.59-2.64l34.22-2.19c1.23-.08,3.77,1.89,4.38,2.6l-29.02,2.23Z"/>
  <path class="cls-1" d="M431.38,540.75l-33.25,2.48c-1.1-.33-3.17-1.54-5.03-2.75l32.64-2.51c2.31-.18,4.81.98,5.63,2.78Z"/>
  <path class="cls-1" d="M325.22,547.88l-29.27,1.94c-3.04.2-5.98.68-8.58-2.05l34.06-2.72c.94-.08,2.34.89,3.79,2.82Z"/>
  <path class="cls-1" d="M482.03,536.92l-29.14,2.23c-2.34.18-5.06-.98-6.89-2.49l12.19-.95,22.45-1.78c.3-.02,2.12,1.33,2.39,1.48.4.22-.38,1.47-1,1.52Z"/>
  <path class="cls-1" d="M181.17,557.61c-.97.07-2.78-1.89-2.67-2.15l35.43-3.2c1-.09,3.06,1.98,2.5,2.87l-35.26,2.48Z"/>
  <path class="cls-1" d="M696.28,528.25l-17.12,1.94c-.99.11-3.11-.92-3.8-1.39s-.67-3.18-.27-4.05c6.03-1.66,15.1-2.23,21.19,3.49Z"/>
  <path class="cls-1" d="M584.46,528.69l-28.16,2.25c-1.34.11-4.29-1.48-4.5-2.32l31.86-2.78c.48-.04,2.22,1.24,2.54,1.28.49.06-1.06,1.52-1.73,1.57Z"/>
  <path class="cls-1" d="M162.08,557.66c4.37,2.34-46.65,5.59-39.22,1.8,13.09-.98,25.32-2.84,39.22-1.8Z"/>
  <path class="cls-1" d="M638.29,522.32c-1.97,2.14-38.26,5.97-36.66,1.73,12.67-.92,23.98-2.84,36.66-1.73Z"/>
  <path class="cls-1" d="M103.9,563.12l-21.32.82c-.47.02-1.85-1.8-1.48-1.91s1.85-.67,2.36-.7l19.7-1.11c.47-.03,2.61.65,2.35.97l-1.61,1.93Z"/>
  <path class="cls-1" d="M418.43,532.66c-10.66,2-21.41,3.04-32.55,2.02l14.7-2.55c5.64-.14,10.99-.07,17.86.53Z"/>
  <path class="cls-1" d="M723.56,594.8c-2.24-4.09-3.15-7.35-4.32-12.19l6.37-2.1c-.29,5.99-.6,9.14-2.05,14.29Z"/>
  <path class="cls-1" d="M712.16,464.6c-.07,1.29-3.71,1.88-4.48,1.33.14-4.11.54-8.02,1.47-12.26,2.36,2.97,3.19,7.44,3,10.94Z"/>
  <path class="cls-1" d="M352.92,538.09c-4.67.14-8.94.1-13.57-.32l18.64-2.41c2.28-.29,4.68.09,6.02,1.29l-11.09,1.44Z"/>
  <path class="cls-1" d="M470.08,528.76c-5.36,1.71-11.17,2.2-17.52,1.47,5.44-2.5,10.74-2.6,17.52-1.47Z"/>
  <path class="cls-1" d="M692.12,508.27c-1.52-1.12-2.47-4.1-2.33-5.9.1-1.38,2.31-2.73,4.2-3.2.46,2.85.04,5.51-1.87,9.1Z"/>
  <path class="cls-1" d="M675.25,680.87c-3.29-.38-5.17-.68-8.83-2.22,1.94-.88,5.73-2.23,7.42-2.66.63-.15.98,1.99,1.4,4.88Z"/>
  <path class="cls-1" d="M314.05,539.73c-4.8.59-9.38,2.32-14.93.61,4.78-1.69,9.18-1.29,14.93-.61Z"/>
  <path class="cls-1" d="M256.48,543.79c-1.81.39-3.88.4-6.24.03,1.81-.39,3.88-.4,6.24-.03Z"/>
  <path class="cls-1" d="M205.82,547.84c-1.81.39-3.88.4-6.24.03,1.81-.39,3.88-.4,6.24-.03Z"/>
</svg>